HIERARCHY
ROOT Hips
{
  OFFSET 0 0 0
  CHANNELS 6 Xposition Yposition Zposition Zrotation Yrotation Xrotation
  JOINT LeftThigh
  {
    OFFSET 8.409438 0 -5.917753
    CHANNELS 3 Zrotation Yrotation Xrotation
    JOINT LeftLeg
    {
      OFFSET 0 0 -42.358652
      CHANNELS 3 Zrotation Yrotation Xrotation
      JOINT LeftFoot
      {
        OFFSET 0 0 -39.357303
        CHANNELS 3 Zrotation Yrotation Xrotation
      }
    }
  }
  JOINT RightThigh
  {
    OFFSET -8.409438 0 -5.917753
    CHANNELS 3 Zrotation Yrotation Xrotation
    JOINT RightLeg
    {
      OFFSET 0 0 -42.358652
      CHANNELS 3 Zrotation Yrotation Xrotation
      JOINT RightFoot
      {
        OFFSET 0 0 -39.357303
        CHANNELS 3 Zrotation Yrotation Xrotation
      }
    }
  }
  JOINT SpineLow
  {
    OFFSET 0 0 4.719101
    CHANNELS 3 Zrotation Yrotation Xrotation
    JOINT SpineMid
    {
      OFFSET 0 0 12.899191
      CHANNELS 3 Zrotation Yrotation Xrotation
      JOINT Chest
      {
        OFFSET 0 0 12.899191
        CHANNELS 3 Zrotation Yrotation Xrotation
        JOINT LeftShoulder
        {
          OFFSET 7.550562 1.41573 9.438202
          CHANNELS 3 Zrotation Yrotation Xrotation
          JOINT LeftArm
          {
            OFFSET 9.155056 0 4.247191
            CHANNELS 3 Zrotation Yrotation Xrotation
            JOINT LeftForearm
            {
              OFFSET 0 0 25.771955
              CHANNELS 3 Zrotation Yrotation Xrotation
              JOINT LeftHand
              {
                OFFSET 0 0 25.197169
                CHANNELS 3 Zrotation Yrotation Xrotation
              }
            }
          }
        }
        JOINT RightShoulder
        {
          OFFSET -7.550562 1.41573 9.438202
          CHANNELS 3 Zrotation Yrotation Xrotation
          JOINT RightArm
          {
            OFFSET -9.155056 0 4.247191
            CHANNELS 3 Zrotation Yrotation Xrotation
            JOINT RightForearm
            {
              OFFSET 0 0 -25.771955
              CHANNELS 3 Zrotation Yrotation Xrotation
              JOINT RightHand
              {
                OFFSET 0 0 -25.197169
                CHANNELS 3 Zrotation Yrotation Xrotation
              }
            }
          }
        }
        JOINT Neck
        {
          OFFSET 0 0 15.101124
          CHANNELS 3 Zrotation Yrotation Xrotation
          JOINT Head
          {
            OFFSET 0 0 11.325843
            CHANNELS 3 Zrotation Yrotation Xrotation
            End Site
            {
              OFFSET 0 0 14.157303
            }
          }
        }
      }
    }
  }
}
MOTION
Frames: 14
Frame Time: 0.0
0.0  89.887642  0.0  99.52675  -30.889141  175.152264  -16.699916  -43.75973  11.546729  -8.313075  12.758671  24.147235  -12.234667  6.03488  8.025138  4.08899  43.613813  -13.34432  2.665445  16.066557  11.086416  12.852311  0.696291  -1.731642  1.364947  5.540164  0.93647  4.013  15.081139  2.923463  4.013  15.081138  2.923462  -2.416678  7.118617  11.97111  -168.751246  50.106299  -165.392507  -57.593182  -0.597719  78.362147  66.763684  46.434419  -35.928225  1.410989  -11.810361  13.709636  152.571727  29.419024  54.227994  -21.375763  15.676298  -85.688794  91.66407  13.144363  -23.217816  32.72433  10.635181  11.269125  24.284696  8.610604  7.87824  
0.0  89.887642  0.0  100.204897  -30.916772  175.683298  -17.839141  -43.260014  10.971671  -4.925008  12.999601  25.729207  -11.424555  6.130993  8.091193  2.409179  42.909255  -16.234808  3.025996  17.482853  11.893633  15.090247  -0.858863  -1.87557  1.495865  5.597973  1.01926  4.400127  15.226979  3.188944  4.400127  15.226978  3.188944  -0.61566  6.562519  11.248309  -172.06207  50.44786  -166.419218  -55.686994  -1.817318  79.946132  66.208763  47.13794  -34.744341  0.990125  -12.563649  13.032294  152.257356  28.578163  53.198264  -21.970612  15.087319  -84.929112  91.128425  12.703256  -22.502683  32.126779  11.198552  10.211294  23.836994  8.96598  7.060903  
0.0  89.887642  0.0  100.570084  -30.782456  176.379415  -17.1746  -43.133419  8.986833  -2.759582  13.537336  27.1285  -10.30696  6.275803  8.352124  1.238985  42.224743  -18.807219  5.486633  17.936493  14.14769  14.570793  -0.678475  -1.975647  1.551184  5.635985  1.112083  4.578677  15.321186  3.463239  4.578677  15.321188  3.463239  -0.552315  7.387051  10.832189  -171.319798  51.666401  -165.717934  -54.051645  -2.123424  81.320016  65.829813  47.513497  -34.085034  0.853142  -12.825787  12.344472  152.133426  27.882707  52.110665  -23.0977  15.264136  -84.137688  90.97882  12.614368  -21.86748  31.722273  12.083027  9.2593  23.524026  9.573726  6.302245  
0.0  89.887642  0.0  100.467711  -30.640687  177.130698  -15.142986  -43.841587  6.284245  -1.738801  16.389862  29.457651  -8.554206  4.84694  7.657784  0.873426  42.01555  -20.294774  8.24273  17.138033  16.12533  12.319581  -0.28422  -1.563375  1.465119  5.654061  1.213647  4.36516  15.368376  3.726475  4.36516  15.368376  3.726475  -1.66342  8.332668  10.449109  -167.296274  52.586506  -163.4089  -52.649338  -1.77607  82.448328  66.155756  47.764823  -33.559192  1.513987  -12.790797  11.693804  151.468693  27.334093  50.987222  -24.270636  16.032025  -83.752751  91.025408  12.841242  -21.166452  31.719594  13.097035  8.433021  23.506981  10.292962  5.623451  
0.0  89.887642  0.0  100.300083  -30.640667  177.814711  -11.843309  -44.902788  3.237275  -1.533423  17.946517  30.198193  -7.694181  4.861431  7.996441  1.213817  42.797114  -21.648411  9.608312  15.432471  18.072919  10.729635  -0.079799  -1.189762  1.334138  5.667297  1.273157  4.016477  15.408563  3.861624  4.016477  15.408564  3.861624  -3.165045  8.59559  10.188415  -161.75693  52.800369  -160.131601  -51.301952  -1.187191  83.404535  66.999976  48.013745  -33.164955  2.839453  -12.662389  11.358002  149.98856  27.058532  49.917926  -25.15805  16.925479  -83.991325  90.955165  13.183085  -20.26968  31.967341  13.957157  7.796534  23.67892  10.910169  5.090374  
0.0  89.887642  0.0  99.797147  -30.810917  178.732354  -7.834275  -46.219373  -0.563114  -1.546732  19.742051  31.275937  -7.197672  4.675468  8.310099  1.48184  43.788471  -23.319996  9.612605  13.989526  20.350863  10.438765  -0.269804  -0.862251  1.236901  5.672721  1.31129  3.755835  15.427084  3.944723  3.755835  15.427084  3.944723  -4.698228  8.38014  9.630738  -156.830234  53.031039  -157.161418  -49.979697  -0.430618  84.306664  68.150032  48.347707  -32.864746  3.971588  -12.619022  11.392072  148.097398  27.130535  49.114132  -25.453349  17.284785  -84.59091  90.435967  13.762015  -19.19285  31.989821  14.530048  7.375569  23.68739  11.319128  4.74047  
0.0  89.887642  0.0  98.787922  -31.174814  179.866195  -3.769226  -47.7907  -4.843635  -1.403252  22.012506  32.848285  -6.866469  4.315759  8.611423  2.23408  44.058147  -23.289505  8.357179  14.169467  21.531461  10.727244  -0.465305  -1.031157  1.272193  5.6556  1.408117  3.87566  15.372075  4.220871  3.87566  15.372076  4.220871  -6.072766  7.922458  8.785268  -153.76241  53.745033  -154.719604  -48.792412  0.289181  85.114779  69.076658  48.532071  -32.696243  4.076513  -12.72729  11.577781  146.24427  27.469121  48.528243  -25.121814  16.75674  -85.205341  89.576693  14.663383  -18.02948  31.477197  14.819512  7.237405  23.299234  11.522276  4.632015  
0.0  89.887642  0.0  97.557989  -31.698932  -179.113602  0.023489  -49.456659  -9.068787  -0.789547  24.559391  34.96048  -6.965357  3.923234  8.851369  2.278099  43.382245  -22.433122  7.608982  14.914168  21.533755  10.654335  -0.383173  -0.978239  1.422697  5.574758  1.527921  4.314828  15.132857  4.582327  4.314828  15.132856  4.582327  -6.658584  7.710885  8.118649  -152.998418  54.949585  -152.707434  -48.237292  0.814189  85.889219  69.826138  48.660435  -32.503703  3.390763  -12.878723  11.941592  144.643819  27.671141  47.937046  -24.472908  15.718097  -85.672072  88.659553  15.824708  -16.924265  30.685603  14.874472  7.503674  22.700829  11.565905  4.847015  
0.0  89.887642  0.0  96.11027  -32.362219  -178.051101  3.206319  -51.065556  -13.074917  -0.023012  27.258966  37.258329  -7.054348  3.675787  9.087865  0.596609  42.060227  -22.529281  8.051563  15.501929  21.42264  10.685267  0.013463  -0.835895  1.578114  5.370994  1.595014  4.742089  14.560086  4.785156  4.742089  14.560087  4.785156  -6.328062  8.219723  7.858017  -154.2103  56.126909  -151.253597  -48.213445  0.885681  86.88117  70.501528  48.889909  -32.340745  2.509259  -12.518148  12.58474  143.371368  27.772284  47.250666  -23.852155  14.576895  -85.969783  87.696874  17.175132  -16.299479  29.998444  14.901627  8.33407  22.167828  11.617431  5.483062  
0.0  89.887642  0.0  94.37031  -32.939967  -176.762411  5.445258  -52.407308  -16.80935  1.106239  30.206657  39.776362  -6.932205  3.458921  9.284819  -1.231881  40.810995  -22.942946  8.672675  16.099692  21.692745  10.672635  0.269423  -0.716098  1.667364  5.154112  1.645497  4.979207  13.957255  4.923346  4.979207  13.957254  4.923347  -5.758528  9.238831  7.890187  -155.64361  57.268792  -149.598418  -48.359283  0.5595  87.966134  71.173605  49.179393  -32.359453  1.805755  -11.976082  13.076211  142.503609  27.829214  46.621111  -23.632145  13.576955  -86.183845  87.119458  18.264224  -15.823094  29.390346  14.97073  9.240881  21.690582  11.703758  6.171866  
0.0  89.887642  0.0  92.649723  -33.28014  -175.327744  7.124089  -53.422462  -20.488567  2.959133  33.462196  42.797838  -6.510511  3.215493  9.394851  -3.016644  39.99863  -23.819869  9.473967  16.576438  22.38279  10.804933  0.24126  -0.698884  1.71826  5.020104  1.67318  5.112606  13.585246  4.997263  5.112606  13.585246  4.997263  -5.423878  10.091733  8.036429  -156.672418  58.093827  -147.765434  -48.370429  -0.088284  89.055149  71.909381  49.548844  -32.642354  1.368078  -11.535775  13.32217  141.885689  27.916868  45.992777  -23.9011  12.915093  -86.373703  86.951606  18.91535  -15.288406  28.794123  14.996136  9.939752  21.228493  11.74584  6.707301  
0.0  89.887642  0.0  90.973594  -33.584079  -173.726412  9.048762  -54.226887  -24.502463  5.473292  36.720968  46.275368  -5.939639  2.963448  9.564628  -4.226422  39.602591  -24.558246  8.121064  16.525412  22.396806  12.250062  0.823423  -0.34084  1.72194  4.945028  1.698677  5.12052  13.377975  5.060945  5.12052  13.377975  5.060945  -5.313711  10.359837  7.978903  -158.116882  58.427801  -146.482388  -48.504012  -1.006822  90.059055  72.750114  50.012175  -33.25845  1.344934  -11.211898  13.166831  141.259364  28.021947  45.373991  -24.526192  12.572757  -86.652959  87.006248  19.264735  -14.664257  28.182628  15.05676  10.271556  20.76244  11.795663  6.966669  
0.0  89.887642  0.0  89.641499  -33.851592  -172.308949  11.517981  -54.674223  -28.482719  8.405157  39.738243  50.038043  -5.192848  2.698329  9.795157  -4.178359  39.60329  -24.450814  8.30517  16.177571  23.098051  11.788992  0.960554  -0.265196  1.753213  4.9271  1.733724  5.212376  13.32362  5.162456  5.212376  13.32362  5.162456  -5.085494  10.170517  7.655077  -160.175049  58.58965  -145.672751  -48.54175  -1.956811  90.795078  73.623492  50.581438  -34.249109  1.584371  -11.008419  12.755938  140.441812  28.245633  44.76426  -25.174072  12.283004  -87.109002  86.959456  19.46286  -14.036167  27.47362  15.070099  10.278829  20.232971  11.792679  6.988446  
0.0  89.887642  0.0  88.426327  -34.208947  -171.007062  14.1926  -55.060776  -32.247529  12.166447  42.380965  54.363356  -4.452565  2.359894  10.04425  -2.995653  39.778432  -23.291659  7.720426  15.787273  23.40774  11.86724  1.468639  0.018179  1.831182  4.925531  1.789329  5.43921  13.30811  5.331998  5.43921  13.308109  5.331998  -4.906871  9.837161  7.070056  -163.244026  58.965862  -145.785117  -48.554342  -2.817489  91.263956  74.393409  51.165763  -35.689749  1.867292  -10.978906  12.180305  139.313551  28.625336  44.180493  -25.564452  11.751343  -87.703503  86.624391  19.671775  -13.476549  26.521386  14.968444  10.08183  19.530792  11.6898  6.869496  
